<?xml version="1.0" encoding="UTF-8"?>
<!DOCTYPE svg PUBLIC "-//W3C//DTD SVG 1.1//EN" "http://www.w3.org/Graphics/SVG/1.1/DTD/svg11.dtd">
<svg xmlns="http://www.w3.org/2000/svg" version="1.1" width="3508px" height="2481px" style="shape-rendering:geometricPrecision; text-rendering:geometricPrecision; image-rendering:optimizeQuality; fill-rule:evenodd; clip-rule:evenodd" xmlns:xlink="http://www.w3.org/1999/xlink">
<g><path style="opacity:0.995" fill="#fefffe" d="M 1663.5,407.5 C 1664.83,502.664 1665.5,598.164 1665.5,694C 1665.33,789.5 1665.17,885 1665,980.5C 1655.94,1063.55 1612.77,1120.71 1535.5,1152C 1526.92,1154.81 1518.25,1157.31 1509.5,1159.5C 1508.33,966.501 1508.17,773.501 1509,580.5C 1519.49,503.703 1559.99,449.537 1630.5,418C 1641.47,414.016 1652.47,410.516 1663.5,407.5 Z"/></g>
<g><path style="opacity:0.988" fill="#019a91" d="M 1611.5,1183.5 C 1611.5,1177.17 1611.5,1170.83 1611.5,1164.5C 1648.68,1163.4 1681.34,1150.9 1709.5,1127C 1723.6,1111.48 1737.93,1096.14 1752.5,1081C 1789.05,1049.07 1831.72,1032.07 1880.5,1030C 1946.83,1029.5 2013.17,1029.33 2079.5,1029.5C 2063.2,1094.98 2024.2,1141.48 1962.5,1169C 1941.98,1177.46 1920.65,1182.46 1898.5,1184C 1802.67,1184.83 1707,1184.67 1611.5,1183.5 Z"/></g>
<g><path style="opacity:0.974" fill="#fefffe" d="M 1611.5,1164.5 C 1611.5,1170.83 1611.5,1177.17 1611.5,1183.5C 1550.17,1183.5 1488.83,1183.5 1427.5,1183.5C 1427.5,1177.17 1427.5,1170.83 1427.5,1164.5C 1488.83,1164.5 1550.17,1164.5 1611.5,1164.5 Z"/></g>
<g><path style="opacity:0.979" fill="#fefffe" d="M 1236.5,1436.5 C 1262.57,1435.53 1287.9,1439.37 1312.5,1448C 1318.83,1450.44 1324.83,1453.44 1330.5,1457C 1326.74,1471.22 1322.9,1485.39 1319,1499.5C 1288.42,1481.92 1255.92,1476.75 1221.5,1484C 1204.53,1491.44 1198.37,1504.27 1203,1522.5C 1205.7,1529.73 1210.2,1535.56 1216.5,1540C 1240.65,1552.57 1264.98,1564.91 1289.5,1577C 1305.86,1586.36 1319.36,1598.86 1330,1614.5C 1350.41,1659.59 1339.58,1695.09 1297.5,1721C 1270.92,1733.82 1242.92,1738.49 1213.5,1735C 1189.01,1733.38 1165.68,1727.38 1143.5,1717C 1142.98,1716.44 1142.64,1715.77 1142.5,1715C 1145.8,1700.96 1149.63,1687.12 1154,1673.5C 1185.51,1689.2 1218.68,1694.7 1253.5,1690C 1264.03,1687.65 1273.2,1682.82 1281,1675.5C 1292.4,1656.07 1289.57,1638.9 1272.5,1624C 1269.17,1621.67 1265.83,1619.33 1262.5,1617C 1242.17,1607.33 1221.83,1597.67 1201.5,1588C 1180.46,1577.75 1164.62,1562.25 1154,1541.5C 1145.26,1514.36 1149.26,1489.36 1166,1466.5C 1177.22,1454.64 1190.72,1446.47 1206.5,1442C 1216.51,1439.46 1226.51,1437.62 1236.5,1436.5 Z"/></g>
<g><path style="opacity:0.98" fill="#fefffe" d="M 2776.5,1436.5 C 2813.26,1434.61 2848.59,1440.61 2882.5,1454.5C 2880.27,1469.32 2877.27,1483.98 2873.5,1498.5C 2836.24,1482.11 2797.58,1477.27 2757.5,1484C 2717.44,1494.06 2692.94,1519.22 2684,1559.5C 2671.49,1652.99 2712.33,1697.16 2806.5,1692C 2816.62,1691.2 2826.62,1689.7 2836.5,1687.5C 2836.5,1656.83 2836.5,1626.17 2836.5,1595.5C 2852.83,1595.5 2869.17,1595.5 2885.5,1595.5C 2885.83,1636.51 2885.5,1677.51 2884.5,1718.5C 2860.05,1727.89 2834.72,1733.39 2808.5,1735C 2777.77,1737.96 2747.77,1734.62 2718.5,1725C 2663.93,1703.41 2634.1,1663.24 2629,1604.5C 2624.88,1560.29 2636.54,1520.96 2664,1486.5C 2685.13,1464.35 2710.63,1449.51 2740.5,1442C 2752.55,1439.5 2764.55,1437.66 2776.5,1436.5 Z"/></g>
<g><path style="opacity:0.983" fill="#fefffe" d="M 810.5,1441.5 C 827.077,1441.18 843.577,1441.51 860,1442.5C 910,1509.83 960,1577.17 1010,1644.5C 1010.5,1576.83 1010.67,1509.17 1010.5,1441.5C 1027.5,1441.5 1044.5,1441.5 1061.5,1441.5C 1061.5,1537.83 1061.5,1634.17 1061.5,1730.5C 1045.15,1730.83 1028.82,1730.5 1012.5,1729.5C 962.141,1662.31 911.974,1594.97 862,1527.5C 861.5,1595.17 861.333,1662.83 861.5,1730.5C 844.5,1730.5 827.5,1730.5 810.5,1730.5C 810.5,1634.17 810.5,1537.83 810.5,1441.5 Z"/></g>
<g><path style="opacity:0.982" fill="#fefffe" d="M 1421.5,1441.5 C 1451.17,1441.33 1480.84,1441.5 1510.5,1442C 1539.46,1442.88 1565.46,1451.88 1588.5,1469C 1612.43,1492.62 1619.93,1520.79 1611,1553.5C 1601.28,1580.22 1583.12,1598.72 1556.5,1609C 1530.11,1619.17 1502.78,1623.34 1474.5,1621.5C 1474.5,1657.83 1474.5,1694.17 1474.5,1730.5C 1456.83,1730.5 1439.17,1730.5 1421.5,1730.5C 1421.5,1634.17 1421.5,1537.83 1421.5,1441.5 Z M 1474.5,1485.5 C 1486.5,1485.33 1498.5,1485.5 1510.5,1486C 1527.42,1486.74 1541.92,1492.91 1554,1504.5C 1567.89,1531.09 1562.06,1552.26 1536.5,1568C 1516.74,1576.54 1496.08,1580.04 1474.5,1578.5C 1474.5,1547.5 1474.5,1516.5 1474.5,1485.5 Z"/></g>
<g><path style="opacity:0.98" fill="#fefffe" d="M 1686.5,1441.5 C 1704.17,1441.5 1721.83,1441.5 1739.5,1441.5C 1739.5,1537.83 1739.5,1634.17 1739.5,1730.5C 1721.83,1730.5 1704.17,1730.5 1686.5,1730.5C 1686.5,1634.17 1686.5,1537.83 1686.5,1441.5 Z"/></g>
<g><path style="opacity:0.982" fill="#fefffe" d="M 1841.5,1441.5 C 1872.84,1441.33 1904.17,1441.5 1935.5,1442C 1964.26,1442.7 1990.26,1451.37 2013.5,1468C 2040.46,1493.46 2047.29,1523.63 2034,1558.5C 2027.06,1572.77 2017.23,1584.6 2004.5,1594C 1994.39,1600.39 1983.72,1605.72 1972.5,1610C 2007.17,1650 2041.83,1690 2076.5,1730C 2054.17,1730.67 2031.83,1730.67 2009.5,1730C 1978.88,1693.04 1947.88,1656.37 1916.5,1620C 1909.2,1620.25 1901.86,1620.41 1894.5,1620.5C 1894.5,1657.17 1894.5,1693.83 1894.5,1730.5C 1876.83,1730.5 1859.17,1730.5 1841.5,1730.5C 1841.5,1634.17 1841.5,1537.83 1841.5,1441.5 Z M 1894.5,1485.5 C 1908.5,1485.33 1922.5,1485.5 1936.5,1486C 1949.83,1487.08 1962.16,1491.08 1973.5,1498C 1988.86,1512.59 1991.69,1529.42 1982,1548.5C 1970.38,1563.06 1955.22,1571.56 1936.5,1574C 1922.58,1576.09 1908.58,1576.92 1894.5,1576.5C 1894.5,1546.17 1894.5,1515.83 1894.5,1485.5 Z"/></g>
<g><path style="opacity:0.98" fill="#fefffe" d="M 2139.5,1441.5 C 2157.17,1441.5 2174.83,1441.5 2192.5,1441.5C 2192.5,1537.83 2192.5,1634.17 2192.5,1730.5C 2174.83,1730.5 2157.17,1730.5 2139.5,1730.5C 2139.5,1634.17 2139.5,1537.83 2139.5,1441.5 Z"/></g>
<g><path style="opacity:0.985" fill="#fefffe" d="M 2294.5,1441.5 C 2310.5,1441.33 2326.5,1441.5 2342.5,1442C 2392.67,1509.5 2442.83,1577 2493,1644.5C 2493.5,1576.83 2493.67,1509.17 2493.5,1441.5C 2510.5,1441.5 2527.5,1441.5 2544.5,1441.5C 2544.5,1537.83 2544.5,1634.17 2544.5,1730.5C 2528.5,1730.67 2512.5,1730.5 2496.5,1730C 2445.97,1663.1 2395.8,1595.93 2346,1528.5C 2345.5,1595.83 2345.33,1663.17 2345.5,1730.5C 2328.5,1730.5 2311.5,1730.5 2294.5,1730.5C 2294.5,1634.17 2294.5,1537.83 2294.5,1441.5 Z"/></g>
<g><path style="opacity:0.973" fill="#fefffe" d="M 699.5,1443.5 C 701.167,1443.5 702.833,1443.5 704.5,1443.5C 704.976,1520.86 704.476,1598.19 703,1675.5C 698.315,1696.72 686.481,1712.55 667.5,1723C 679.829,1723.5 692.162,1723.67 704.5,1723.5C 704.5,1725.83 704.5,1728.17 704.5,1730.5C 676.833,1730.5 649.167,1730.5 621.5,1730.5C 621.5,1728.17 621.5,1725.83 621.5,1723.5C 629.167,1723.5 636.833,1723.5 644.5,1723.5C 644.018,1648.14 644.518,1572.8 646,1497.5C 653.348,1468.99 671.182,1450.99 699.5,1443.5 Z"/></g>
<g><path style="opacity:0.96" fill="#808284" d="M 1331.5,1916.5 C 1355.92,1914.18 1379.59,1917.18 1402.5,1925.5C 1401.6,1933.01 1399.93,1940.35 1397.5,1947.5C 1369.75,1935.47 1341.75,1934.63 1313.5,1945C 1290.52,1958.6 1279.52,1978.94 1280.5,2006C 1282.12,2050.11 1305.12,2071.95 1349.5,2071.5C 1359.32,2071.15 1368.99,2069.82 1378.5,2067.5C 1379.5,2049.18 1379.83,2030.85 1379.5,2012.5C 1387.83,2012.5 1396.17,2012.5 1404.5,2012.5C 1404.83,2036.07 1404.49,2059.57 1403.5,2083C 1373.94,2093.17 1343.94,2094.84 1313.5,2088C 1280.25,2078.42 1260.75,2056.59 1255,2022.5C 1248.81,1963.91 1274.31,1928.57 1331.5,1916.5 Z"/></g>
<g><path style="opacity:0.957" fill="#808284" d="M 1548.5,1916.5 C 1569.7,1914.06 1589.86,1917.39 1609,1926.5C 1608.32,1933.23 1606.99,1939.9 1605,1946.5C 1604.59,1946.96 1604.09,1947.29 1603.5,1947.5C 1585.07,1937.71 1565.74,1935.21 1545.5,1940C 1536.76,1943.75 1532.43,1950.42 1532.5,1960C 1532.79,1968.29 1536.46,1974.62 1543.5,1979C 1562.14,1987.65 1580.14,1997.32 1597.5,2008C 1617.41,2024.54 1621.58,2044.38 1610,2067.5C 1601.85,2078 1591.35,2085.17 1578.5,2089C 1554.05,2094.36 1530.05,2092.69 1506.5,2084C 1504.67,2083.25 1503,2082.25 1501.5,2081C 1503.59,2074.11 1505.76,2067.28 1508,2060.5C 1525.88,2069.12 1544.71,2072.29 1564.5,2070C 1588.42,2064.66 1594.92,2051.16 1584,2029.5C 1582.5,2028 1581,2026.5 1579.5,2025C 1561.04,2015.6 1542.71,2005.94 1524.5,1996C 1508.47,1984.42 1502.63,1968.92 1507,1949.5C 1510.91,1935.92 1519.41,1926.42 1532.5,1921C 1537.87,1919.16 1543.21,1917.66 1548.5,1916.5 Z"/></g>
<g><path style="opacity:0.962" fill="#808284" d="M 1714.5,1916.5 C 1747.17,1912 1774.67,1921.67 1797,1945.5C 1817.01,1974.55 1821.34,2005.88 1810,2039.5C 1794.83,2074.45 1768,2092.12 1729.5,2092.5C 1674.43,2089.09 1645.43,2059.76 1642.5,2004.5C 1643.88,1956.31 1667.88,1926.98 1714.5,1916.5 Z M 1719.5,1937.5 C 1764.63,1936.46 1787.96,1958.63 1789.5,2004C 1785.89,2056.96 1758.22,2077.96 1706.5,2067C 1686.35,2057.5 1674.51,2041.66 1671,2019.5C 1667,1996.5 1671.67,1975.5 1685,1956.5C 1694.62,1946.61 1706.12,1940.28 1719.5,1937.5 Z"/></g>
<g><path style="opacity:0.961" fill="#808284" d="M 2448.5,1916.5 C 2481.17,1912 2508.67,1921.67 2531,1945.5C 2551.01,1974.55 2555.34,2005.88 2544,2039.5C 2528.83,2074.45 2502,2092.12 2463.5,2092.5C 2408.19,2089.02 2379.19,2059.52 2376.5,2004C 2378.03,1956.01 2402.03,1926.84 2448.5,1916.5 Z M 2453.5,1937.5 C 2498.63,1936.46 2521.96,1958.63 2523.5,2004C 2519.89,2056.96 2492.22,2077.96 2440.5,2067C 2420.35,2057.5 2408.51,2041.66 2405,2019.5C 2401,1996.5 2405.67,1975.5 2419,1956.5C 2428.62,1946.61 2440.12,1940.28 2453.5,1937.5 Z"/></g>
<g><path style="opacity:0.957" fill="#808284" d="M 2817.5,1916.5 C 2838.67,1914.21 2858.83,1917.55 2878,1926.5C 2877.26,1933.77 2875.43,1940.77 2872.5,1947.5C 2854.06,1937.84 2834.72,1935.34 2814.5,1940C 2803.25,1945.34 2799.08,1954.18 2802,1966.5C 2803.4,1970.79 2805.9,1974.29 2809.5,1977C 2826.14,1985.65 2842.8,1994.32 2859.5,2003C 2869.1,2009.26 2876.6,2017.43 2882,2027.5C 2889.7,2058.6 2878.2,2079.1 2847.5,2089C 2823.05,2094.36 2799.05,2092.69 2775.5,2084C 2773.45,2083.31 2771.78,2082.15 2770.5,2080.5C 2772.5,2073.83 2774.5,2067.16 2776.5,2060.5C 2798.07,2071.05 2820.41,2073.21 2843.5,2067C 2856.49,2060.71 2860.99,2050.54 2857,2036.5C 2853.89,2029.72 2849.05,2024.55 2842.5,2021C 2826.19,2013.51 2810.19,2005.51 2794.5,1997C 2772.83,1980.14 2768.66,1959.64 2782,1935.5C 2791.58,1924.8 2803.41,1918.46 2817.5,1916.5 Z"/></g>
<g><path style="opacity:0.965" fill="#808284" d="M 621.5,1919.5 C 630.5,1919.5 639.5,1919.5 648.5,1919.5C 648.5,1968.83 648.5,2018.17 648.5,2067.5C 672.833,2067.5 697.167,2067.5 721.5,2067.5C 721.5,2074.83 721.5,2082.17 721.5,2089.5C 688.167,2089.5 654.833,2089.5 621.5,2089.5C 621.5,2032.83 621.5,1976.17 621.5,1919.5 Z"/></g>
<g><path style="opacity:0.96" fill="#808284" d="M 754.5,1919.5 C 763.5,1919.5 772.5,1919.5 781.5,1919.5C 781.5,1976.17 781.5,2032.83 781.5,2089.5C 772.5,2089.5 763.5,2089.5 754.5,2089.5C 754.5,2032.83 754.5,1976.17 754.5,1919.5 Z"/></g>
<g><path style="opacity:0.962" fill="#808284" d="M 811.5,1919.5 C 820.525,1919.17 829.525,1919.5 838.5,1920.5C 854.902,1965.54 871.402,2010.54 888,2055.5C 905.2,2010.4 921.7,1965.07 937.5,1919.5C 946.839,1919.33 956.173,1919.5 965.5,1920C 944.363,1976.41 923.03,2032.74 901.5,2089C 892.255,2089.82 883.089,2089.65 874,2088.5C 852.861,2032.25 832.028,1975.91 811.5,1919.5 Z"/></g>
<g><path style="opacity:0.97" fill="#808284" d="M 994.5,1919.5 C 1003.5,1919.5 1012.5,1919.5 1021.5,1919.5C 1021.5,1976.17 1021.5,2032.83 1021.5,2089.5C 1012.5,2089.5 1003.5,2089.5 994.5,2089.5C 994.5,2032.83 994.5,1976.17 994.5,1919.5 Z"/></g>
<g><path style="opacity:0.962" fill="#808284" d="M 1069.5,1919.5 C 1078.17,1919.33 1086.84,1919.5 1095.5,1920C 1127,1962.17 1158.5,2004.33 1190,2046.5C 1190.5,2004.17 1190.67,1961.83 1190.5,1919.5C 1199.17,1919.5 1207.83,1919.5 1216.5,1919.5C 1216.5,1976.17 1216.5,2032.83 1216.5,2089.5C 1208.16,2089.67 1199.83,2089.5 1191.5,2089C 1159.67,2046.5 1127.83,2004 1096,1961.5C 1095.5,2004.17 1095.33,2046.83 1095.5,2089.5C 1086.83,2089.5 1078.17,2089.5 1069.5,2089.5C 1069.5,2032.83 1069.5,1976.17 1069.5,1919.5 Z"/></g>
<g><path style="opacity:0.959" fill="#808284" d="M 1853.5,1919.5 C 1862.5,1919.5 1871.5,1919.5 1880.5,1919.5C 1880.5,1968.83 1880.5,2018.17 1880.5,2067.5C 1904.83,2067.5 1929.17,2067.5 1953.5,2067.5C 1953.5,2074.83 1953.5,2082.17 1953.5,2089.5C 1920.17,2089.5 1886.83,2089.5 1853.5,2089.5C 1853.5,2032.83 1853.5,1976.17 1853.5,1919.5 Z"/></g>
<g><path style="opacity:0.965" fill="#808284" d="M 1977.5,1919.5 C 1986.5,1919.5 1995.5,1919.5 2004.5,1919.5C 2004.03,1960.2 2004.53,2000.87 2006,2041.5C 2012.41,2061.63 2026.24,2071.3 2047.5,2070.5C 2068.25,2071.23 2082.08,2061.9 2089,2042.5C 2090.47,2001.54 2090.97,1960.54 2090.5,1919.5C 2099.5,1919.5 2108.5,1919.5 2117.5,1919.5C 2117.67,1958.83 2117.5,1998.17 2117,2037.5C 2113.36,2063.81 2098.86,2080.97 2073.5,2089C 2050.72,2095.03 2028.72,2093.03 2007.5,2083C 1989.41,2072 1979.57,2055.84 1978,2034.5C 1977.5,1996.17 1977.33,1957.83 1977.5,1919.5 Z"/></g>
<g><path style="opacity:0.972" fill="#808284" d="M 2148.5,1919.5 C 2191.5,1919.5 2234.5,1919.5 2277.5,1919.5C 2277.5,1926.5 2277.5,1933.5 2277.5,1940.5C 2260.5,1940.5 2243.5,1940.5 2226.5,1940.5C 2226.5,1990.17 2226.5,2039.83 2226.5,2089.5C 2217.5,2089.5 2208.5,2089.5 2199.5,2089.5C 2199.5,2039.83 2199.5,1990.17 2199.5,1940.5C 2182.5,1940.5 2165.5,1940.5 2148.5,1940.5C 2148.5,1933.5 2148.5,1926.5 2148.5,1919.5 Z"/></g>
<g><path style="opacity:0.969" fill="#808284" d="M 2310.5,1919.5 C 2319.5,1919.5 2328.5,1919.5 2337.5,1919.5C 2337.5,1976.17 2337.5,2032.83 2337.5,2089.5C 2328.5,2089.5 2319.5,2089.5 2310.5,2089.5C 2310.5,2032.83 2310.5,1976.17 2310.5,1919.5 Z"/></g>
<g><path style="opacity:0.962" fill="#808284" d="M 2587.5,1919.5 C 2596.17,1919.33 2604.84,1919.5 2613.5,1920C 2645.12,1962.08 2676.62,2004.24 2708,2046.5C 2708.5,2004.17 2708.67,1961.83 2708.5,1919.5C 2717.17,1919.5 2725.83,1919.5 2734.5,1919.5C 2734.5,1976.17 2734.5,2032.83 2734.5,2089.5C 2726.16,2089.67 2717.83,2089.5 2709.5,2089C 2677.67,2046.5 2645.83,2004 2614,1961.5C 2613.5,2004.17 2613.33,2046.83 2613.5,2089.5C 2604.83,2089.5 2596.17,2089.5 2587.5,2089.5C 2587.5,2032.83 2587.5,1976.17 2587.5,1919.5 Z"/></g>
</svg>
